REM DIRINDEX 1\2\5,1\2\6,1\2\7,1\2\8,1\3\9,1\3\10,1\3\11,1\4\12,1\4\13,1\4\14,1\4\15,1\4\16
REM DIRNAME folder01,folder02,folder03,folder04,folder05,folder06,folder07,folder08,folder09,folder10,folder11,folder12,folder13,folder14,folder15,folder16
TITLE ""
FILE "1200_sec03_0898_0906.mp3" MP3
  TRACK 01 AUDIO
    TITLE "0:"
    INDEX 01 00:00:00
  TRACK 02 AUDIO
    TITLE "16:cjc034_07266"
    INDEX 01 00:00:19
  TRACK 03 AUDIO
    TITLE "0:"
    INDEX 01 00:05:07
  TRACK 04 AUDIO
    TITLE "12:cjc034_07267"
    INDEX 01 00:06:14
  TRACK 05 AUDIO
    TITLE "0:"
    INDEX 01 00:07:35
  TRACK 06 AUDIO
    TITLE "13:cjc034_07268"
    INDEX 01 00:07:70
  TRACK 07 AUDIO
    TITLE "0:"
    INDEX 01 00:09:12
  TRACK 08 AUDIO
    TITLE "14:cjc034_07269"
    INDEX 01 00:09:45
  TRACK 09 AUDIO
    TITLE "0:"
    INDEX 01 00:10:68
  TRACK 10 AUDIO
    TITLE "15:cjc034_07270"
    INDEX 01 00:11:27
  TRACK 11 AUDIO
    TITLE "0:"
    INDEX 01 00:14:49
  TRACK 12 AUDIO
    TITLE "12:cjc034_07271"
    INDEX 01 00:16:20
  TRACK 13 AUDIO
    TITLE "0:"
    INDEX 01 00:17:53
  TRACK 14 AUDIO
    TITLE "13:cjc034_07272"
    INDEX 01 00:18:11
  TRACK 15 AUDIO
    TITLE "0:"
    INDEX 01 00:19:36
  TRACK 16 AUDIO
    TITLE "14:cjc034_07273"
    INDEX 01 00:19:69
  TRACK 17 AUDIO
    TITLE "0:"
    INDEX 01 00:21:27
  TRACK 18 AUDIO
    TITLE "15:cjc034_07274"
    INDEX 01 00:21:62
  TRACK 19 AUDIO
    TITLE "0:"
    INDEX 01 00:25:64
  TRACK 20 AUDIO
    TITLE "12:cjc034_07275"
    INDEX 01 00:27:24
  TRACK 21 AUDIO
    TITLE "0:"
    INDEX 01 00:28:53
  TRACK 22 AUDIO
    TITLE "13:cjc034_07276"
    INDEX 01 00:29:15
  TRACK 23 AUDIO
    TITLE "0:"
    INDEX 01 00:30:38
  TRACK 24 AUDIO
    TITLE "14:cjc034_07277"
    INDEX 01 00:30:69
  TRACK 25 AUDIO
    TITLE "0:"
    INDEX 01 00:32:25
  TRACK 26 AUDIO
    TITLE "15:cjc034_07278"
    INDEX 01 00:32:62
  TRACK 27 AUDIO
    TITLE "0:"
    INDEX 01 00:36:68
  TRACK 28 AUDIO
    TITLE "12:cjc034_07279"
    INDEX 01 00:38:24
  TRACK 29 AUDIO
    TITLE "0:"
    INDEX 01 00:39:43
  TRACK 30 AUDIO
    TITLE "13:cjc034_07280"
    INDEX 01 00:39:74
  TRACK 31 AUDIO
    TITLE "0:"
    INDEX 01 00:41:04
  TRACK 32 AUDIO
    TITLE "14:cjc034_07281"
    INDEX 01 00:41:36
  TRACK 33 AUDIO
    TITLE "0:"
    INDEX 01 00:42:53
  TRACK 34 AUDIO
    TITLE "15:cjc034_07282"
    INDEX 01 00:43:13
  TRACK 35 AUDIO
    TITLE "0:"
    INDEX 01 00:46:09
  TRACK 36 AUDIO
    TITLE "12:cjc034_07283"
    INDEX 01 00:47:44
  TRACK 37 AUDIO
    TITLE "0:"
    INDEX 01 00:48:53
  TRACK 38 AUDIO
    TITLE "13:cjc034_07284"
    INDEX 01 00:49:12
  TRACK 39 AUDIO
    TITLE "0:"
    INDEX 01 00:53:02
  TRACK 40 AUDIO
    TITLE "14:cjc034_07285"
    INDEX 01 00:53:37
  TRACK 41 AUDIO
    TITLE "0:"
    INDEX 01 00:54:48
  TRACK 42 AUDIO
    TITLE "15:cjc034_07286"
    INDEX 01 00:55:06
  TRACK 43 AUDIO
    TITLE "0:"
    INDEX 01 00:58:22
  TRACK 44 AUDIO
    TITLE "12:cjc034_07287"
    INDEX 01 00:59:59
  TRACK 45 AUDIO
    TITLE "0:"
    INDEX 01 01:01:05
  TRACK 46 AUDIO
    TITLE "13:cjc034_07288"
    INDEX 01 01:01:40
  TRACK 47 AUDIO
    TITLE "0:"
    INDEX 01 01:02:50
  TRACK 48 AUDIO
    TITLE "14:cjc034_07289"
    INDEX 01 01:03:06
  TRACK 49 AUDIO
    TITLE "0:"
    INDEX 01 01:04:29
  TRACK 50 AUDIO
    TITLE "15:cjc034_07290"
    INDEX 01 01:04:64
  TRACK 51 AUDIO
    TITLE "0:"
    INDEX 01 01:07:72
  TRACK 52 AUDIO
    TITLE "12:cjc034_07291"
    INDEX 01 01:09:30
  TRACK 53 AUDIO
    TITLE "0:"
    INDEX 01 01:10:47
  TRACK 54 AUDIO
    TITLE "13:cjc034_07292"
    INDEX 01 01:11:03
  TRACK 55 AUDIO
    TITLE "0:"
    INDEX 01 01:12:11
  TRACK 56 AUDIO
    TITLE "14:cjc034_07293"
    INDEX 01 01:12:42
  TRACK 57 AUDIO
    TITLE "0:"
    INDEX 01 01:13:59
  TRACK 58 AUDIO
    TITLE "15:cjc034_07294"
    INDEX 01 01:14:17
  TRACK 59 AUDIO
    TITLE "0:"
    INDEX 01 01:18:27
  TRACK 60 AUDIO
    TITLE "12:cjc034_07295"
    INDEX 01 01:19:64
  TRACK 61 AUDIO
    TITLE "0:"
    INDEX 01 01:20:71
  TRACK 62 AUDIO
    TITLE "13:cjc034_07296"
    INDEX 01 01:21:31
  TRACK 63 AUDIO
    TITLE "0:"
    INDEX 01 01:23:71
  TRACK 64 AUDIO
    TITLE "14:cjc034_07297"
    INDEX 01 01:24:36
  TRACK 65 AUDIO
    TITLE "0:"
    INDEX 01 01:25:41
  TRACK 66 AUDIO
    TITLE "15:cjc034_07298"
    INDEX 01 01:26:03
  TRACK 67 AUDIO
    TITLE "0:"
    INDEX 01 01:29:46
  TRACK 68 AUDIO
    TITLE "12:cjc034_07299"
    INDEX 01 01:31:10
  TRACK 69 AUDIO
    TITLE "0:"
    INDEX 01 01:32:29
  TRACK 70 AUDIO
    TITLE "13:cjc034_07300"
    INDEX 01 01:32:60
  TRACK 71 AUDIO
    TITLE "0:"
    INDEX 01 01:33:48
  TRACK 72 AUDIO
    TITLE "14:cjc034_07301"
    INDEX 01 01:34:05
  TRACK 73 AUDIO
    TITLE "0:"
    INDEX 01 01:35:22
  TRACK 74 AUDIO
    TITLE "15:cjc034_07302"
    INDEX 01 01:35:55
  TRACK 75 AUDIO
    TITLE "0:"
    INDEX 01 01:39:35
